<svg width="456" height="243" viewBox="0 0 456 243" xmlns="http://www.w3.org/2000/svg" xmlns:xlink="http://www.w3.org/1999/xlink"><title>noun_578701_cc</title><desc>Created using Figma</desc><use xlink:href="#a" transform="translate(152.001 53.156)" fill="#FFF"/><use xlink:href="#b" fill="#FFF"/><defs><path id="a" fill-rule="evenodd" d="M76 45.563c-16.766 0-30.4 13.623-30.4 30.374a7.595 7.595 0 0 1-7.6 7.594 7.595 7.595 0 0 1-7.6-7.594C30.4 50.81 50.85 30.376 76 30.376a7.595 7.595 0 1 1 0 15.188zM76 0C34.092 0 0 34.066 0 75.938c0 41.871 34.093 75.937 76 75.937 41.906 0 75.999-34.066 75.999-75.938 0-41.871-34.093-75.937-76-75.937z"/><path id="b" fill-rule="evenodd" d="M228 227.812c-30.559 0-57.912-13.942-76.045-35.781-.433-.517-.806-1.063-1.224-1.587-1.451-1.83-2.872-3.683-4.195-5.612-.661-.965-1.254-1.967-1.877-2.947-.973-1.526-1.938-3.06-2.827-4.647-.707-1.253-1.345-2.536-1.991-3.82-.692-1.374-1.376-2.741-1.999-4.146a100.925 100.925 0 0 1-1.817-4.381 102.86 102.86 0 0 1-1.474-4.01 111.463 111.463 0 0 1-1.459-4.624c-.411-1.42-.76-2.856-1.11-4.298-.357-1.496-.714-2.992-1.003-4.504-.327-1.739-.57-3.5-.805-5.262-.168-1.253-.38-2.506-.502-3.767-.289-3.075-.471-6.181-.471-9.332 0-3.243.182-6.447.486-9.614.137-1.405.395-2.787.593-4.176.243-1.724.456-3.448.79-5.141.342-1.739.798-3.44 1.231-5.157.32-1.291.616-2.589.996-3.857.555-1.883 1.224-3.736 1.892-5.582.38-1.04.73-2.088 1.14-3.105.791-1.952 1.672-3.873 2.584-5.772.411-.858.806-1.716 1.239-2.559 1.026-1.99 2.143-3.933 3.306-5.862.411-.684.813-1.375 1.247-2.043a95.351 95.351 0 0 1 4.066-5.855c.402-.546.805-1.093 1.223-1.632a101.306 101.306 0 0 1 4.758-5.658C172.847 43.057 198.938 30.375 228 30.375c29.062 0 55.153 12.682 73.248 32.706a101.306 101.306 0 0 1 4.758 5.658c.418.539.821 1.085 1.223 1.632a95.351 95.351 0 0 1 4.066 5.855c.434.668.836 1.36 1.247 2.043 1.163 1.929 2.28 3.873 3.306 5.862.433.843.828 1.701 1.239 2.56.912 1.898 1.793 3.819 2.584 5.77.41 1.018.76 2.066 1.14 3.106.668 1.846 1.337 3.699 1.892 5.582.38 1.268.676 2.566.995 3.857.434 1.717.89 3.418 1.232 5.157.334 1.693.547 3.417.79 5.141.198 1.389.456 2.771.593 4.176.304 3.167.486 6.371.486 9.614 0 3.151-.182 6.257-.471 9.332-.122 1.261-.334 2.514-.502 3.767-.235 1.762-.478 3.523-.805 5.262-.289 1.512-.646 3.008-1.003 4.504-.35 1.442-.7 2.878-1.11 4.298-.448 1.549-.942 3.09-1.459 4.624a102.86 102.86 0 0 1-1.474 4.01 100.925 100.925 0 0 1-1.817 4.381c-.623 1.405-1.307 2.772-1.999 4.146-.646 1.284-1.284 2.567-1.991 3.82-.889 1.587-1.854 3.121-2.827 4.647-.623.98-1.216 1.982-1.877 2.947-1.323 1.929-2.744 3.782-4.195 5.612-.418.524-.791 1.07-1.224 1.587-18.133 21.839-45.486 35.781-76.045 35.781zM454.691 3.334A7.61 7.61 0 0 0 448.398 0H334.399a7.6 7.6 0 0 0-6.597 3.827L304.379 44.78C284.141 26.457 257.397 15.187 228 15.187c-29.397 0-56.141 11.27-76.379 29.593L128.198 3.827A7.6 7.6 0 0 0 121.601 0h-114A7.61 7.61 0 0 0 1.31 3.334a7.608 7.608 0 0 0-.768 7.085l7.995 19.956h52.265a7.595 7.595 0 1 1 0 15.188H14.616l6.08 15.187h47.705a7.595 7.595 0 1 1 0 15.188H26.776l6.08 15.187h50.745a7.595 7.595 0 0 1 0 15.187H38.936l18.141 45.312a84.721 84.721 0 0 0 12.586 21.559c16.203 20.192 40.348 31.772 66.248 31.772h7.289C164.084 228.238 194.309 243 228 243c33.691 0 63.916-14.762 84.8-38.045h7.289c25.9 0 50.045-11.58 66.248-31.772a84.72 84.72 0 0 0 12.586-21.559l18.141-45.312h-44.665a7.595 7.595 0 1 1 0-15.187h50.745l6.08-15.188h-41.625a7.595 7.595 0 1 1 0-15.187h47.705l6.08-15.188h-46.185a7.595 7.595 0 1 1 0-15.187h52.265l7.995-19.956a7.607 7.607 0 0 0-.768-7.085z"/></defs></svg>