<svg version="1" xmlns="http://www.w3.org/2000/svg" width="1216" height="1216" viewBox="0 0 912.000000 912.000000"><path d="M7.2 215c-1.8 1.1-4.1 3.4-5.2 5.2-3.6 5.9-2.7 10.4 6.3 32.8l8.3 20.5 55 .5 54.9.5 3.3 2.3c4.1 3 6.2 7 6.2 12.2 0 5.2-2.1 9.2-6.2 12.2l-3.3 2.3-48.8.3c-37.8.2-48.8.5-48.4 1.5.3.7 3 7.6 6.2 15.4l5.7 14.3h99.5l3.3 2.2c5.1 3.5 7.3 7.1 7.3 12 0 5.5-2.5 10.3-6.6 12.8-3 1.9-5.3 2-46.8 2-24 0-43.8.2-44.1.5-.3.4 2.2 7.5 5.6 16l6.1 15.5h106.2l3.4 2.3c8.9 5.9 8.9 18.5 0 24.4l-3.4 2.3h-46.8c-31.2 0-46.9.3-46.9 1 0 1.8 38.1 96.2 41.6 103.3 23.8 47.2 67.3 80.4 119.1 90.8 7.7 1.5 16 2.3 28.8 2.6l18 .5 11.1 10.7c34.5 33.5 74.2 53.9 120.9 62.2 15 2.7 48.3 3.7 63.2 2 24.9-2.9 51.9-10.8 74-21.5 23.6-11.5 41.1-23.8 60.2-42.1l11.6-11.2 18.5-.6c20.3-.6 30.6-2.3 47.5-7.7 42.6-13.6 79.3-44.9 99-84 4.3-8.5 42.5-103 42.5-105 0-.7-16.4-1-46.9-1h-46.8l-3.4-2.3c-3.9-2.6-6.9-7.9-6.9-12.2 0-4 2.9-9.4 6.3-11.9 2.8-2 4.2-2.1 56.5-2.6l53.7-.5 6.1-15c3.4-8.3 5.9-15.3 5.7-15.8-.2-.4-20.1-.7-44.1-.7-41.5 0-43.9-.1-46.9-2-8.2-4.9-9-16-1.8-23l3.6-3.5 50.8-.3 50.9-.3 6.1-14.9c3.3-8.2 6.1-15.1 6.1-15.4 0-.3-21.3-.6-47.2-.6-44.5 0-47.6-.2-51.5-2-11-4.9-11.2-20.8-.3-26.2 3.2-1.6 8.1-1.8 57.5-1.8h54l8.2-20.8c9.1-22.7 9.9-27.1 6.3-33-1.1-1.8-3.4-4.1-5.2-5.2-3.2-2-5.3-2-121.6-2-131.7 0-122.7-.5-127.4 6.8-1.4 2-12.5 21.3-24.8 42.9l-22.4 39.2-3.8-3.5c-7.4-6.7-23.6-18.1-34.9-24.7-56.6-32.8-125-39.6-186.7-18.6-24.2 8.3-54.4 25.1-72.8 40.8l-7.2 6-24.2-42.5c-19.2-33.5-25-42.9-27.5-44.4-3.2-2-5.4-2-122.1-2-116.9 0-119 0-122.2 2zm466.2 60c46.1 4.4 88.4 24.1 120.7 56.2 32 31.9 50.4 68.4 56.9 113 13.2 89.5-40.2 179.3-125.5 211.3-73.7 27.6-156.5 8.9-211-47.6-75-77.8-73.8-199.5 2.6-275.8 41.4-41.5 99-62.5 156.3-57.1z"/><path d="M439 319.7c-45.7 6-84.9 30.1-110.1 67.6-10.2 15.2-17.4 32.3-22 52.2-2.9 12.8-3.7 40.4-1.6 54 10.4 65.6 60.2 116.5 124.5 127.6 15.4 2.6 37 2.6 52.4-.1 61.3-10.5 109.2-56.8 123.1-118.8 1.8-8.2 2.1-12.9 2.2-30.7 0-18.4-.3-22.3-2.3-31.4-10.4-46.3-39.7-84.3-80.7-104.6-23.2-11.5-39.3-15.5-65-16-9.3-.2-18.6-.1-20.5.2zm24.7 63.3c6.9 4.2 8.9 11.7 5.1 18.9-2.9 5.5-7.5 8.1-14.4 8.1-7.2 0-19.3 3.3-27.2 7.5-18.4 9.7-30.1 27.6-32.1 49.3-.5 5.3-1.5 10-2.5 11.8-6.2 10.3-20.5 9.5-25.8-1.5-2.1-4.3-2.1-5-1-14.8 3.6-32.7 23.8-60.7 53.2-74 15.1-6.8 37.8-9.5 44.7-5.3z"/></svg>